<mxfile host="app.diagrams.net" modified="2024-04-05T09:46:27.448Z" agent="Mozilla/5.0 (Windows NT 10.0; Win64; x64) AppleWebKit/537.36 (KHTML, like Gecko) Chrome/123.0.0.0 Safari/537.36 Edg/123.0.0.0" etag="JlwqS_VDCn_rlYeD2OBk" version="24.2.0" type="github">
  <diagram id="R2lEEEUBdFMjLlhIrx00" name="Page-1">
    <mxGraphModel dx="1314" dy="1030" grid="0" gridSize="10" guides="1" tooltips="1" connect="1" arrows="1" fold="1" page="1" pageScale="1" pageWidth="850" pageHeight="1100" math="0" shadow="0" extFonts="Permanent Marker^https://fonts.googleapis.com/css?family=Permanent+Marker">
      <root>
        <mxCell id="0" />
        <mxCell id="1" parent="0" />
        <mxCell id="VfQw10z59d6hTfCO1_Ws-1" value="用户" style="whiteSpace=wrap;html=1;align=center;" vertex="1" parent="1">
          <mxGeometry x="433" y="715" width="66" height="32" as="geometry" />
        </mxCell>
        <mxCell id="VfQw10z59d6hTfCO1_Ws-23" style="edgeStyle=orthogonalEdgeStyle;rounded=0;orthogonalLoop=1;jettySize=auto;html=1;exitX=0.5;exitY=0;exitDx=0;exitDy=0;entryX=0.5;entryY=1;entryDx=0;entryDy=0;endArrow=none;endFill=0;" edge="1" parent="1" source="VfQw10z59d6hTfCO1_Ws-3" target="VfQw10z59d6hTfCO1_Ws-9">
          <mxGeometry relative="1" as="geometry" />
        </mxCell>
        <mxCell id="VfQw10z59d6hTfCO1_Ws-24" value="N" style="edgeLabel;html=1;align=center;verticalAlign=middle;resizable=0;points=[];" vertex="1" connectable="0" parent="VfQw10z59d6hTfCO1_Ws-23">
          <mxGeometry x="0.1438" y="-1" relative="1" as="geometry">
            <mxPoint as="offset" />
          </mxGeometry>
        </mxCell>
        <mxCell id="VfQw10z59d6hTfCO1_Ws-79" style="edgeStyle=orthogonalEdgeStyle;curved=1;rounded=0;orthogonalLoop=1;jettySize=auto;html=1;exitX=1;exitY=0.5;exitDx=0;exitDy=0;entryX=0;entryY=0.5;entryDx=0;entryDy=0;strokeColor=default;align=center;verticalAlign=middle;fontFamily=Helvetica;fontSize=11;fontColor=default;labelBackgroundColor=default;endArrow=none;endFill=0;" edge="1" parent="1" source="VfQw10z59d6hTfCO1_Ws-3" target="VfQw10z59d6hTfCO1_Ws-61">
          <mxGeometry relative="1" as="geometry" />
        </mxCell>
        <mxCell id="VfQw10z59d6hTfCO1_Ws-3" value="商品" style="whiteSpace=wrap;html=1;align=center;" vertex="1" parent="1">
          <mxGeometry x="432" y="493" width="66" height="32" as="geometry" />
        </mxCell>
        <mxCell id="VfQw10z59d6hTfCO1_Ws-38" style="edgeStyle=orthogonalEdgeStyle;rounded=0;orthogonalLoop=1;jettySize=auto;html=1;exitX=1;exitY=0.5;exitDx=0;exitDy=0;endArrow=none;endFill=0;" edge="1" parent="1" source="VfQw10z59d6hTfCO1_Ws-4" target="VfQw10z59d6hTfCO1_Ws-11">
          <mxGeometry relative="1" as="geometry" />
        </mxCell>
        <mxCell id="VfQw10z59d6hTfCO1_Ws-39" value="N" style="edgeLabel;html=1;align=center;verticalAlign=middle;resizable=0;points=[];" vertex="1" connectable="0" parent="VfQw10z59d6hTfCO1_Ws-38">
          <mxGeometry x="-0.3033" relative="1" as="geometry">
            <mxPoint x="7" as="offset" />
          </mxGeometry>
        </mxCell>
        <mxCell id="VfQw10z59d6hTfCO1_Ws-42" style="edgeStyle=orthogonalEdgeStyle;rounded=0;orthogonalLoop=1;jettySize=auto;html=1;exitX=0.5;exitY=1;exitDx=0;exitDy=0;entryX=0.5;entryY=0;entryDx=0;entryDy=0;endArrow=none;endFill=0;" edge="1" parent="1" source="VfQw10z59d6hTfCO1_Ws-4" target="VfQw10z59d6hTfCO1_Ws-8">
          <mxGeometry relative="1" as="geometry" />
        </mxCell>
        <mxCell id="VfQw10z59d6hTfCO1_Ws-43" value="1" style="edgeLabel;html=1;align=center;verticalAlign=middle;resizable=0;points=[];" vertex="1" connectable="0" parent="VfQw10z59d6hTfCO1_Ws-42">
          <mxGeometry x="0.4906" y="-1" relative="1" as="geometry">
            <mxPoint x="1" y="-29" as="offset" />
          </mxGeometry>
        </mxCell>
        <mxCell id="VfQw10z59d6hTfCO1_Ws-4" value="购物车" style="whiteSpace=wrap;html=1;align=center;" vertex="1" parent="1">
          <mxGeometry x="144" y="493" width="66" height="32" as="geometry" />
        </mxCell>
        <mxCell id="VfQw10z59d6hTfCO1_Ws-5" value="订单" style="whiteSpace=wrap;html=1;align=center;" vertex="1" parent="1">
          <mxGeometry x="432" y="243" width="66" height="32" as="geometry" />
        </mxCell>
        <mxCell id="VfQw10z59d6hTfCO1_Ws-19" style="edgeStyle=orthogonalEdgeStyle;rounded=0;orthogonalLoop=1;jettySize=auto;html=1;exitX=0.5;exitY=0;exitDx=0;exitDy=0;endArrow=none;endFill=0;" edge="1" parent="1" source="VfQw10z59d6hTfCO1_Ws-7" target="VfQw10z59d6hTfCO1_Ws-3">
          <mxGeometry relative="1" as="geometry" />
        </mxCell>
        <mxCell id="VfQw10z59d6hTfCO1_Ws-20" value="1" style="edgeLabel;html=1;align=center;verticalAlign=middle;resizable=0;points=[];" vertex="1" connectable="0" parent="VfQw10z59d6hTfCO1_Ws-19">
          <mxGeometry x="0.0083" relative="1" as="geometry">
            <mxPoint as="offset" />
          </mxGeometry>
        </mxCell>
        <mxCell id="VfQw10z59d6hTfCO1_Ws-21" style="edgeStyle=orthogonalEdgeStyle;rounded=0;orthogonalLoop=1;jettySize=auto;html=1;exitX=0.5;exitY=1;exitDx=0;exitDy=0;entryX=0.5;entryY=0;entryDx=0;entryDy=0;endArrow=none;endFill=0;" edge="1" parent="1" source="VfQw10z59d6hTfCO1_Ws-7" target="VfQw10z59d6hTfCO1_Ws-1">
          <mxGeometry relative="1" as="geometry" />
        </mxCell>
        <mxCell id="VfQw10z59d6hTfCO1_Ws-22" value="N" style="edgeLabel;html=1;align=center;verticalAlign=middle;resizable=0;points=[];" vertex="1" connectable="0" parent="VfQw10z59d6hTfCO1_Ws-21">
          <mxGeometry x="-0.1056" y="1" relative="1" as="geometry">
            <mxPoint as="offset" />
          </mxGeometry>
        </mxCell>
        <mxCell id="VfQw10z59d6hTfCO1_Ws-7" value="购买" style="shape=rhombus;perimeter=rhombusPerimeter;whiteSpace=wrap;html=1;align=center;" vertex="1" parent="1">
          <mxGeometry x="432" y="605" width="67" height="37" as="geometry" />
        </mxCell>
        <mxCell id="VfQw10z59d6hTfCO1_Ws-8" value="存储" style="shape=rhombus;perimeter=rhombusPerimeter;whiteSpace=wrap;html=1;align=center;" vertex="1" parent="1">
          <mxGeometry x="145" y="715" width="64" height="33" as="geometry" />
        </mxCell>
        <mxCell id="VfQw10z59d6hTfCO1_Ws-25" style="edgeStyle=orthogonalEdgeStyle;rounded=0;orthogonalLoop=1;jettySize=auto;html=1;exitX=0.5;exitY=0;exitDx=0;exitDy=0;endArrow=none;endFill=0;" edge="1" parent="1" source="VfQw10z59d6hTfCO1_Ws-9" target="VfQw10z59d6hTfCO1_Ws-5">
          <mxGeometry relative="1" as="geometry" />
        </mxCell>
        <mxCell id="VfQw10z59d6hTfCO1_Ws-27" value="M" style="edgeLabel;html=1;align=center;verticalAlign=middle;resizable=0;points=[];" vertex="1" connectable="0" parent="VfQw10z59d6hTfCO1_Ws-25">
          <mxGeometry x="-0.023" y="2" relative="1" as="geometry">
            <mxPoint as="offset" />
          </mxGeometry>
        </mxCell>
        <mxCell id="VfQw10z59d6hTfCO1_Ws-9" value="生成" style="shape=rhombus;perimeter=rhombusPerimeter;whiteSpace=wrap;html=1;align=center;" vertex="1" parent="1">
          <mxGeometry x="431.5" y="382" width="67" height="37" as="geometry" />
        </mxCell>
        <mxCell id="VfQw10z59d6hTfCO1_Ws-36" style="edgeStyle=orthogonalEdgeStyle;rounded=0;orthogonalLoop=1;jettySize=auto;html=1;exitX=1;exitY=0.5;exitDx=0;exitDy=0;endArrow=none;endFill=0;" edge="1" parent="1" source="VfQw10z59d6hTfCO1_Ws-11" target="VfQw10z59d6hTfCO1_Ws-3">
          <mxGeometry relative="1" as="geometry" />
        </mxCell>
        <mxCell id="VfQw10z59d6hTfCO1_Ws-37" value="M" style="edgeLabel;html=1;align=center;verticalAlign=middle;resizable=0;points=[];" vertex="1" connectable="0" parent="VfQw10z59d6hTfCO1_Ws-36">
          <mxGeometry x="0.0155" y="-2" relative="1" as="geometry">
            <mxPoint as="offset" />
          </mxGeometry>
        </mxCell>
        <mxCell id="VfQw10z59d6hTfCO1_Ws-11" value="加购" style="shape=rhombus;perimeter=rhombusPerimeter;whiteSpace=wrap;html=1;align=center;" vertex="1" parent="1">
          <mxGeometry x="285" y="490.5" width="67" height="37" as="geometry" />
        </mxCell>
        <mxCell id="VfQw10z59d6hTfCO1_Ws-35" style="edgeStyle=orthogonalEdgeStyle;rounded=0;orthogonalLoop=1;jettySize=auto;html=1;exitX=0.5;exitY=0;exitDx=0;exitDy=0;entryX=1;entryY=0.5;entryDx=0;entryDy=0;endArrow=none;endFill=0;" edge="1" parent="1" source="VfQw10z59d6hTfCO1_Ws-33" target="VfQw10z59d6hTfCO1_Ws-5">
          <mxGeometry relative="1" as="geometry" />
        </mxCell>
        <mxCell id="VfQw10z59d6hTfCO1_Ws-33" value="隶属" style="shape=rhombus;perimeter=rhombusPerimeter;whiteSpace=wrap;html=1;align=center;" vertex="1" parent="1">
          <mxGeometry x="662" y="483" width="67" height="37" as="geometry" />
        </mxCell>
        <mxCell id="VfQw10z59d6hTfCO1_Ws-34" style="edgeStyle=orthogonalEdgeStyle;rounded=0;orthogonalLoop=1;jettySize=auto;html=1;exitX=1;exitY=0.5;exitDx=0;exitDy=0;entryX=0.521;entryY=0.919;entryDx=0;entryDy=0;entryPerimeter=0;endArrow=none;endFill=0;" edge="1" parent="1" source="VfQw10z59d6hTfCO1_Ws-1" target="VfQw10z59d6hTfCO1_Ws-33">
          <mxGeometry relative="1" as="geometry" />
        </mxCell>
        <mxCell id="VfQw10z59d6hTfCO1_Ws-40" style="edgeStyle=orthogonalEdgeStyle;rounded=0;orthogonalLoop=1;jettySize=auto;html=1;exitX=0;exitY=0.5;exitDx=0;exitDy=0;entryX=1;entryY=0.5;entryDx=0;entryDy=0;endArrow=none;endFill=0;" edge="1" parent="1" source="VfQw10z59d6hTfCO1_Ws-1" target="VfQw10z59d6hTfCO1_Ws-8">
          <mxGeometry relative="1" as="geometry" />
        </mxCell>
        <mxCell id="VfQw10z59d6hTfCO1_Ws-41" value="1" style="edgeLabel;html=1;align=center;verticalAlign=middle;resizable=0;points=[];" vertex="1" connectable="0" parent="VfQw10z59d6hTfCO1_Ws-40">
          <mxGeometry x="-0.0482" y="-1" relative="1" as="geometry">
            <mxPoint as="offset" />
          </mxGeometry>
        </mxCell>
        <mxCell id="VfQw10z59d6hTfCO1_Ws-71" style="edgeStyle=orthogonalEdgeStyle;rounded=0;orthogonalLoop=1;jettySize=auto;html=1;exitX=0.5;exitY=0;exitDx=0;exitDy=0;curved=1;strokeColor=default;endArrow=none;endFill=0;" edge="1" parent="1" source="VfQw10z59d6hTfCO1_Ws-45" target="VfQw10z59d6hTfCO1_Ws-1">
          <mxGeometry relative="1" as="geometry" />
        </mxCell>
        <mxCell id="VfQw10z59d6hTfCO1_Ws-45" value="用户名" style="ellipse;whiteSpace=wrap;html=1;align=center;" vertex="1" parent="1">
          <mxGeometry x="416.75" y="820" width="49" height="26" as="geometry" />
        </mxCell>
        <mxCell id="VfQw10z59d6hTfCO1_Ws-72" style="edgeStyle=orthogonalEdgeStyle;rounded=0;orthogonalLoop=1;jettySize=auto;html=1;exitX=0.5;exitY=0;exitDx=0;exitDy=0;curved=1;endArrow=none;endFill=0;" edge="1" parent="1" source="VfQw10z59d6hTfCO1_Ws-46" target="VfQw10z59d6hTfCO1_Ws-1">
          <mxGeometry relative="1" as="geometry" />
        </mxCell>
        <mxCell id="VfQw10z59d6hTfCO1_Ws-46" value="手机号" style="ellipse;whiteSpace=wrap;html=1;align=center;" vertex="1" parent="1">
          <mxGeometry x="476.75" y="820" width="49" height="26" as="geometry" />
        </mxCell>
        <mxCell id="VfQw10z59d6hTfCO1_Ws-73" style="edgeStyle=orthogonalEdgeStyle;curved=1;rounded=0;orthogonalLoop=1;jettySize=auto;html=1;exitX=0.5;exitY=0;exitDx=0;exitDy=0;strokeColor=default;align=center;verticalAlign=middle;fontFamily=Helvetica;fontSize=11;fontColor=default;labelBackgroundColor=default;endArrow=none;endFill=0;" edge="1" parent="1" source="VfQw10z59d6hTfCO1_Ws-47" target="VfQw10z59d6hTfCO1_Ws-1">
          <mxGeometry relative="1" as="geometry" />
        </mxCell>
        <mxCell id="VfQw10z59d6hTfCO1_Ws-47" value="密码" style="ellipse;whiteSpace=wrap;html=1;align=center;" vertex="1" parent="1">
          <mxGeometry x="536.75" y="820" width="49" height="26" as="geometry" />
        </mxCell>
        <mxCell id="VfQw10z59d6hTfCO1_Ws-74" style="edgeStyle=orthogonalEdgeStyle;curved=1;rounded=0;orthogonalLoop=1;jettySize=auto;html=1;exitX=0.5;exitY=0;exitDx=0;exitDy=0;strokeColor=default;align=center;verticalAlign=middle;fontFamily=Helvetica;fontSize=11;fontColor=default;labelBackgroundColor=default;endArrow=none;endFill=0;" edge="1" parent="1" source="VfQw10z59d6hTfCO1_Ws-48" target="VfQw10z59d6hTfCO1_Ws-1">
          <mxGeometry relative="1" as="geometry">
            <Array as="points">
              <mxPoint x="617" y="768" />
              <mxPoint x="466" y="768" />
            </Array>
          </mxGeometry>
        </mxCell>
        <mxCell id="VfQw10z59d6hTfCO1_Ws-48" value="头像" style="ellipse;whiteSpace=wrap;html=1;align=center;" vertex="1" parent="1">
          <mxGeometry x="592.75" y="820" width="49" height="26" as="geometry" />
        </mxCell>
        <mxCell id="VfQw10z59d6hTfCO1_Ws-70" style="edgeStyle=orthogonalEdgeStyle;rounded=0;orthogonalLoop=1;jettySize=auto;html=1;exitX=0.5;exitY=0;exitDx=0;exitDy=0;curved=1;endArrow=none;endFill=0;" edge="1" parent="1" source="VfQw10z59d6hTfCO1_Ws-49" target="VfQw10z59d6hTfCO1_Ws-1">
          <mxGeometry relative="1" as="geometry" />
        </mxCell>
        <mxCell id="VfQw10z59d6hTfCO1_Ws-49" value="邮箱" style="ellipse;whiteSpace=wrap;html=1;align=center;" vertex="1" parent="1">
          <mxGeometry x="356.75" y="820" width="49" height="26" as="geometry" />
        </mxCell>
        <mxCell id="VfQw10z59d6hTfCO1_Ws-94" style="edgeStyle=orthogonalEdgeStyle;curved=1;rounded=0;orthogonalLoop=1;jettySize=auto;html=1;exitX=0.5;exitY=1;exitDx=0;exitDy=0;strokeColor=default;align=center;verticalAlign=middle;fontFamily=Helvetica;fontSize=11;fontColor=default;labelBackgroundColor=default;endArrow=none;endFill=0;" edge="1" parent="1" source="VfQw10z59d6hTfCO1_Ws-50" target="VfQw10z59d6hTfCO1_Ws-4">
          <mxGeometry relative="1" as="geometry" />
        </mxCell>
        <mxCell id="VfQw10z59d6hTfCO1_Ws-50" value="加购&lt;div&gt;数量&lt;/div&gt;" style="ellipse;whiteSpace=wrap;html=1;align=center;" vertex="1" parent="1">
          <mxGeometry x="153.5" y="406" width="52" height="36" as="geometry" />
        </mxCell>
        <mxCell id="VfQw10z59d6hTfCO1_Ws-93" style="edgeStyle=orthogonalEdgeStyle;curved=1;rounded=0;orthogonalLoop=1;jettySize=auto;html=1;exitX=0.5;exitY=1;exitDx=0;exitDy=0;strokeColor=default;align=center;verticalAlign=middle;fontFamily=Helvetica;fontSize=11;fontColor=default;labelBackgroundColor=default;endArrow=none;endFill=0;" edge="1" parent="1" source="VfQw10z59d6hTfCO1_Ws-51" target="VfQw10z59d6hTfCO1_Ws-4">
          <mxGeometry relative="1" as="geometry" />
        </mxCell>
        <mxCell id="VfQw10z59d6hTfCO1_Ws-51" value="商品&lt;div&gt;编号&lt;/div&gt;" style="ellipse;whiteSpace=wrap;html=1;align=center;" vertex="1" parent="1">
          <mxGeometry x="214.5" y="406" width="52" height="36" as="geometry" />
        </mxCell>
        <mxCell id="VfQw10z59d6hTfCO1_Ws-87" style="edgeStyle=orthogonalEdgeStyle;curved=1;rounded=0;orthogonalLoop=1;jettySize=auto;html=1;exitX=1;exitY=1;exitDx=0;exitDy=0;entryX=0;entryY=0.5;entryDx=0;entryDy=0;strokeColor=default;align=center;verticalAlign=middle;fontFamily=Helvetica;fontSize=11;fontColor=default;labelBackgroundColor=default;endArrow=none;endFill=0;" edge="1" parent="1" source="VfQw10z59d6hTfCO1_Ws-52" target="VfQw10z59d6hTfCO1_Ws-5">
          <mxGeometry relative="1" as="geometry" />
        </mxCell>
        <mxCell id="VfQw10z59d6hTfCO1_Ws-52" value="收件人" style="ellipse;whiteSpace=wrap;html=1;align=center;" vertex="1" parent="1">
          <mxGeometry x="306.5" y="157" width="52" height="36" as="geometry" />
        </mxCell>
        <mxCell id="VfQw10z59d6hTfCO1_Ws-88" style="edgeStyle=orthogonalEdgeStyle;curved=1;rounded=0;orthogonalLoop=1;jettySize=auto;html=1;exitX=1;exitY=1;exitDx=0;exitDy=0;entryX=0.5;entryY=0;entryDx=0;entryDy=0;strokeColor=default;align=center;verticalAlign=middle;fontFamily=Helvetica;fontSize=11;fontColor=default;labelBackgroundColor=default;endArrow=none;endFill=0;" edge="1" parent="1" source="VfQw10z59d6hTfCO1_Ws-53" target="VfQw10z59d6hTfCO1_Ws-5">
          <mxGeometry relative="1" as="geometry" />
        </mxCell>
        <mxCell id="VfQw10z59d6hTfCO1_Ws-53" value="收件&lt;div&gt;电话&lt;/div&gt;" style="ellipse;whiteSpace=wrap;html=1;align=center;" vertex="1" parent="1">
          <mxGeometry x="373.5" y="153" width="52" height="36" as="geometry" />
        </mxCell>
        <mxCell id="VfQw10z59d6hTfCO1_Ws-90" style="edgeStyle=orthogonalEdgeStyle;curved=1;rounded=0;orthogonalLoop=1;jettySize=auto;html=1;exitX=0.5;exitY=1;exitDx=0;exitDy=0;entryX=0.5;entryY=0;entryDx=0;entryDy=0;strokeColor=default;align=center;verticalAlign=middle;fontFamily=Helvetica;fontSize=11;fontColor=default;labelBackgroundColor=default;endArrow=none;endFill=0;" edge="1" parent="1" source="VfQw10z59d6hTfCO1_Ws-54" target="VfQw10z59d6hTfCO1_Ws-5">
          <mxGeometry relative="1" as="geometry">
            <Array as="points">
              <mxPoint x="469" y="207" />
              <mxPoint x="465" y="207" />
            </Array>
          </mxGeometry>
        </mxCell>
        <mxCell id="VfQw10z59d6hTfCO1_Ws-54" value="收件&lt;div&gt;地址&lt;/div&gt;" style="ellipse;whiteSpace=wrap;html=1;align=center;" vertex="1" parent="1">
          <mxGeometry x="442.5" y="153" width="52" height="36" as="geometry" />
        </mxCell>
        <mxCell id="VfQw10z59d6hTfCO1_Ws-91" style="edgeStyle=orthogonalEdgeStyle;curved=1;rounded=0;orthogonalLoop=1;jettySize=auto;html=1;exitX=0.5;exitY=1;exitDx=0;exitDy=0;entryX=0.5;entryY=0;entryDx=0;entryDy=0;strokeColor=default;align=center;verticalAlign=middle;fontFamily=Helvetica;fontSize=11;fontColor=default;labelBackgroundColor=default;endArrow=none;endFill=0;" edge="1" parent="1" source="VfQw10z59d6hTfCO1_Ws-55" target="VfQw10z59d6hTfCO1_Ws-5">
          <mxGeometry relative="1" as="geometry">
            <Array as="points">
              <mxPoint x="535" y="189" />
              <mxPoint x="535" y="208" />
              <mxPoint x="465" y="208" />
            </Array>
          </mxGeometry>
        </mxCell>
        <mxCell id="VfQw10z59d6hTfCO1_Ws-55" value="提交&lt;div&gt;日期&lt;/div&gt;" style="ellipse;whiteSpace=wrap;html=1;align=center;" vertex="1" parent="1">
          <mxGeometry x="508" y="153" width="52" height="36" as="geometry" />
        </mxCell>
        <mxCell id="VfQw10z59d6hTfCO1_Ws-95" style="edgeStyle=orthogonalEdgeStyle;curved=1;rounded=0;orthogonalLoop=1;jettySize=auto;html=1;exitX=0.5;exitY=1;exitDx=0;exitDy=0;strokeColor=default;align=center;verticalAlign=middle;fontFamily=Helvetica;fontSize=11;fontColor=default;labelBackgroundColor=default;endArrow=none;endFill=0;" edge="1" parent="1" source="VfQw10z59d6hTfCO1_Ws-56" target="VfQw10z59d6hTfCO1_Ws-4">
          <mxGeometry relative="1" as="geometry" />
        </mxCell>
        <mxCell id="VfQw10z59d6hTfCO1_Ws-56" value="选中&lt;div&gt;状态&lt;/div&gt;" style="ellipse;whiteSpace=wrap;html=1;align=center;" vertex="1" parent="1">
          <mxGeometry x="87.5" y="406" width="52" height="36" as="geometry" />
        </mxCell>
        <mxCell id="VfQw10z59d6hTfCO1_Ws-92" style="edgeStyle=orthogonalEdgeStyle;curved=1;rounded=0;orthogonalLoop=1;jettySize=auto;html=1;exitX=0.5;exitY=1;exitDx=0;exitDy=0;strokeColor=default;align=center;verticalAlign=middle;fontFamily=Helvetica;fontSize=11;fontColor=default;labelBackgroundColor=default;endArrow=none;endFill=0;" edge="1" parent="1" source="VfQw10z59d6hTfCO1_Ws-57" target="VfQw10z59d6hTfCO1_Ws-5">
          <mxGeometry relative="1" as="geometry" />
        </mxCell>
        <mxCell id="VfQw10z59d6hTfCO1_Ws-57" value="订单&lt;div&gt;状态&lt;/div&gt;" style="ellipse;whiteSpace=wrap;html=1;align=center;" vertex="1" parent="1">
          <mxGeometry x="571.5" y="153" width="52" height="36" as="geometry" />
        </mxCell>
        <mxCell id="VfQw10z59d6hTfCO1_Ws-86" style="edgeStyle=orthogonalEdgeStyle;curved=1;rounded=0;orthogonalLoop=1;jettySize=auto;html=1;exitX=1;exitY=0.5;exitDx=0;exitDy=0;strokeColor=default;align=center;verticalAlign=middle;fontFamily=Helvetica;fontSize=11;fontColor=default;labelBackgroundColor=default;endArrow=none;endFill=0;" edge="1" parent="1" source="VfQw10z59d6hTfCO1_Ws-58" target="VfQw10z59d6hTfCO1_Ws-5">
          <mxGeometry relative="1" as="geometry" />
        </mxCell>
        <mxCell id="VfQw10z59d6hTfCO1_Ws-58" value="实付&lt;div&gt;金额&lt;/div&gt;" style="ellipse;whiteSpace=wrap;html=1;align=center;" vertex="1" parent="1">
          <mxGeometry x="306.5" y="213" width="52" height="36" as="geometry" />
        </mxCell>
        <mxCell id="VfQw10z59d6hTfCO1_Ws-85" style="edgeStyle=orthogonalEdgeStyle;curved=1;rounded=0;orthogonalLoop=1;jettySize=auto;html=1;exitX=1;exitY=0.5;exitDx=0;exitDy=0;entryX=0;entryY=0.5;entryDx=0;entryDy=0;strokeColor=default;align=center;verticalAlign=middle;fontFamily=Helvetica;fontSize=11;fontColor=default;labelBackgroundColor=default;endArrow=none;endFill=0;" edge="1" parent="1" source="VfQw10z59d6hTfCO1_Ws-59" target="VfQw10z59d6hTfCO1_Ws-5">
          <mxGeometry relative="1" as="geometry" />
        </mxCell>
        <mxCell id="VfQw10z59d6hTfCO1_Ws-59" value="订购&lt;div&gt;总数&lt;/div&gt;" style="ellipse;whiteSpace=wrap;html=1;align=center;" vertex="1" parent="1">
          <mxGeometry x="306.5" y="269" width="52" height="36" as="geometry" />
        </mxCell>
        <mxCell id="VfQw10z59d6hTfCO1_Ws-77" style="edgeStyle=orthogonalEdgeStyle;curved=1;rounded=0;orthogonalLoop=1;jettySize=auto;html=1;exitX=0;exitY=0.5;exitDx=0;exitDy=0;entryX=1;entryY=0.5;entryDx=0;entryDy=0;strokeColor=default;align=center;verticalAlign=middle;fontFamily=Helvetica;fontSize=11;fontColor=default;labelBackgroundColor=default;endArrow=none;endFill=0;" edge="1" parent="1" source="VfQw10z59d6hTfCO1_Ws-60" target="VfQw10z59d6hTfCO1_Ws-3">
          <mxGeometry relative="1" as="geometry" />
        </mxCell>
        <mxCell id="VfQw10z59d6hTfCO1_Ws-60" value="商品&lt;div&gt;名称&lt;/div&gt;" style="ellipse;whiteSpace=wrap;html=1;align=center;" vertex="1" parent="1">
          <mxGeometry x="561" y="406" width="52" height="36" as="geometry" />
        </mxCell>
        <mxCell id="VfQw10z59d6hTfCO1_Ws-61" value="商品&lt;div&gt;介绍&lt;/div&gt;" style="ellipse;whiteSpace=wrap;html=1;align=center;" vertex="1" parent="1">
          <mxGeometry x="561" y="450" width="52" height="36" as="geometry" />
        </mxCell>
        <mxCell id="VfQw10z59d6hTfCO1_Ws-82" style="edgeStyle=orthogonalEdgeStyle;curved=1;rounded=0;orthogonalLoop=1;jettySize=auto;html=1;exitX=0;exitY=0.5;exitDx=0;exitDy=0;strokeColor=default;align=center;verticalAlign=middle;fontFamily=Helvetica;fontSize=11;fontColor=default;labelBackgroundColor=default;endArrow=none;endFill=0;" edge="1" parent="1" source="VfQw10z59d6hTfCO1_Ws-62" target="VfQw10z59d6hTfCO1_Ws-3">
          <mxGeometry relative="1" as="geometry" />
        </mxCell>
        <mxCell id="VfQw10z59d6hTfCO1_Ws-62" value="商品&lt;div&gt;库存&lt;/div&gt;" style="ellipse;whiteSpace=wrap;html=1;align=center;" vertex="1" parent="1">
          <mxGeometry x="561" y="493.5" width="52" height="36" as="geometry" />
        </mxCell>
        <mxCell id="VfQw10z59d6hTfCO1_Ws-81" style="edgeStyle=orthogonalEdgeStyle;curved=1;rounded=0;orthogonalLoop=1;jettySize=auto;html=1;exitX=0;exitY=0.5;exitDx=0;exitDy=0;entryX=1;entryY=0.5;entryDx=0;entryDy=0;strokeColor=default;align=center;verticalAlign=middle;fontFamily=Helvetica;fontSize=11;fontColor=default;labelBackgroundColor=default;endArrow=none;endFill=0;" edge="1" parent="1" source="VfQw10z59d6hTfCO1_Ws-63" target="VfQw10z59d6hTfCO1_Ws-3">
          <mxGeometry relative="1" as="geometry" />
        </mxCell>
        <mxCell id="VfQw10z59d6hTfCO1_Ws-63" value="商品&lt;div&gt;价格&lt;/div&gt;" style="ellipse;whiteSpace=wrap;html=1;align=center;" vertex="1" parent="1">
          <mxGeometry x="561" y="539" width="52" height="36" as="geometry" />
        </mxCell>
        <mxCell id="VfQw10z59d6hTfCO1_Ws-80" style="edgeStyle=orthogonalEdgeStyle;curved=1;rounded=0;orthogonalLoop=1;jettySize=auto;html=1;exitX=0;exitY=0.5;exitDx=0;exitDy=0;entryX=1;entryY=0.5;entryDx=0;entryDy=0;strokeColor=default;align=center;verticalAlign=middle;fontFamily=Helvetica;fontSize=11;fontColor=default;labelBackgroundColor=default;endArrow=none;endFill=0;" edge="1" parent="1" source="VfQw10z59d6hTfCO1_Ws-64" target="VfQw10z59d6hTfCO1_Ws-3">
          <mxGeometry relative="1" as="geometry" />
        </mxCell>
        <mxCell id="VfQw10z59d6hTfCO1_Ws-64" value="&lt;div&gt;展示&lt;/div&gt;图片" style="ellipse;whiteSpace=wrap;html=1;align=center;" vertex="1" parent="1">
          <mxGeometry x="561" y="586" width="52" height="36" as="geometry" />
        </mxCell>
        <mxCell id="VfQw10z59d6hTfCO1_Ws-84" style="edgeStyle=orthogonalEdgeStyle;curved=1;rounded=0;orthogonalLoop=1;jettySize=auto;html=1;exitX=1;exitY=0.5;exitDx=0;exitDy=0;entryX=0.25;entryY=1;entryDx=0;entryDy=0;strokeColor=default;align=center;verticalAlign=middle;fontFamily=Helvetica;fontSize=11;fontColor=default;labelBackgroundColor=default;endArrow=none;endFill=0;" edge="1" parent="1" source="VfQw10z59d6hTfCO1_Ws-65" target="VfQw10z59d6hTfCO1_Ws-3">
          <mxGeometry relative="1" as="geometry" />
        </mxCell>
        <mxCell id="VfQw10z59d6hTfCO1_Ws-65" value="商品&lt;div&gt;状态&lt;div&gt;&lt;/div&gt;&lt;/div&gt;" style="ellipse;whiteSpace=wrap;html=1;align=center;" vertex="1" parent="1">
          <mxGeometry x="375" y="550" width="52" height="36" as="geometry" />
        </mxCell>
        <mxCell id="VfQw10z59d6hTfCO1_Ws-83" style="edgeStyle=orthogonalEdgeStyle;curved=1;rounded=0;orthogonalLoop=1;jettySize=auto;html=1;exitX=1;exitY=0.5;exitDx=0;exitDy=0;entryX=0.25;entryY=0;entryDx=0;entryDy=0;strokeColor=default;align=center;verticalAlign=middle;fontFamily=Helvetica;fontSize=11;fontColor=default;labelBackgroundColor=default;endArrow=none;endFill=0;" edge="1" parent="1" source="VfQw10z59d6hTfCO1_Ws-66" target="VfQw10z59d6hTfCO1_Ws-3">
          <mxGeometry relative="1" as="geometry" />
        </mxCell>
        <mxCell id="VfQw10z59d6hTfCO1_Ws-66" value="商品&lt;div&gt;编码&lt;div&gt;&lt;/div&gt;&lt;/div&gt;" style="ellipse;whiteSpace=wrap;html=1;align=center;" vertex="1" parent="1">
          <mxGeometry x="372" y="432" width="52" height="36" as="geometry" />
        </mxCell>
        <mxCell id="VfQw10z59d6hTfCO1_Ws-69" style="rounded=0;orthogonalLoop=1;jettySize=auto;html=1;exitX=0.5;exitY=0;exitDx=0;exitDy=0;edgeStyle=orthogonalEdgeStyle;curved=1;endArrow=none;endFill=0;" edge="1" parent="1" source="VfQw10z59d6hTfCO1_Ws-67" target="VfQw10z59d6hTfCO1_Ws-1">
          <mxGeometry relative="1" as="geometry">
            <Array as="points">
              <mxPoint x="322" y="771" />
              <mxPoint x="466" y="771" />
            </Array>
          </mxGeometry>
        </mxCell>
        <mxCell id="VfQw10z59d6hTfCO1_Ws-67" value="用户ID" style="ellipse;whiteSpace=wrap;html=1;align=center;" vertex="1" parent="1">
          <mxGeometry x="297.25" y="820" width="49" height="26" as="geometry" />
        </mxCell>
      </root>
    </mxGraphModel>
  </diagram>
</mxfile>
